<svg width="66" height="61" viewBox="0 0 66 61" fill="none" xmlns="http://www.w3.org/2000/svg">
<path d="M40.8867 9.87947L35.1326 15.1798C34.2659 15.9781 33.3495 17.0276 33.05 18.0443C32.7506 17.0276 32.2596 15.9781 31.393 15.1798L25.6389 9.87951C22.9906 7.44011 18.697 7.44011 16.0487 9.87951C13.66 12.0799 13.5222 15.6022 15.4429 18.0443L33.05 18.0443L12.7063 18.0443C8.96112 18.0443 5.92505 20.8409 5.92505 24.2908C5.92505 25.9932 6.66442 27.5366 7.86352 28.6633H33.0369L33.05 28.6632L33.0632 28.6633H58.2366C59.4357 27.5366 60.175 25.9932 60.175 24.2908C60.175 20.8409 57.139 18.0443 53.3938 18.0443L50.4768 18.0443L51.179 18.0443C53.0997 15.6022 52.8656 12.0798 50.4768 9.87947C47.8286 7.44008 43.5349 7.44008 40.8867 9.87947Z" fill="var(--secondaryButtonColor)"/>
<path d="M8.58614 32.625L8.57774 32.3223H31.0157V55.4342H28.9813C22.662 55.4342 19.5023 55.4342 17.0099 54.438C13.6867 53.1096 11.0465 50.5618 9.66995 47.3549C8.63765 44.9499 8.63765 41.8997 8.63765 35.8025C8.63765 34.4661 8.60961 33.4639 8.58614 32.625Z" fill="var(--secondaryButtonColor)"/>
<path d="M49.0902 54.438C46.5978 55.4342 43.4381 55.4342 37.1188 55.4342H35.0844V32.3223H57.4472C57.4626 33.2222 57.4626 34.3016 57.4626 35.8025C57.4626 41.9007 57.4626 44.9497 56.4302 47.3549C55.0537 50.5618 52.4134 53.1096 49.0902 54.438Z" fill="var(--secondaryButtonColor)"/>
</svg>
